<svg width="66" height="66" viewBox="0 0 66 66" fill="none" xmlns="http://www.w3.org/2000/svg">
<path d="M17.28 12.87L11.88 7.5L7.65 11.73L13.02 17.1L17.28 12.87ZM9 29.85H0V35.85H9V29.85ZM36 0H30V8.85H36V0ZM58.35 11.73L54.12 7.5L48.75 12.87L52.98 17.1L58.35 11.73ZM48.72 52.83L54.09 58.23L58.32 54L52.92 48.63L48.72 52.83ZM57 29.85V35.85H66V29.85H57ZM33 14.85C23.07 14.85 15 22.92 15 32.85C15 42.78 23.07 50.85 33 50.85C42.93 50.85 51 42.78 51 32.85C51 22.92 42.93 14.85 33 14.85ZM30 65.7H36V56.85H30V65.7ZM7.65 53.97L11.88 58.2L17.25 52.8L13.02 48.57L7.65 53.97Z" fill="#E9FA85"/>
</svg>
